<svg xmlns="http://www.w3.org/2000/svg" width="1920" height="1080" viewBox="0 0 1920 1080"><rect width="100%" height="100%" fill="#0d1117"/><path fill="#22c55e" d="M437.945 492.555h14.71v78.81h-14.71v-34.44h-37.01v34.44h-14.71v-78.81h14.71v33.9h37.01zm59.68 64.37v-9.43q-5.84.27-9.81 1.01-3.98.73-6.38 1.88-2.4 1.14-3.43 2.67-1.04 1.52-1.04 3.32 0 3.54 2.1 5.07t5.48 1.53q4.14 0 7.16-1.5 3.03-1.5 5.92-4.55m-28.45-29.38-2.4-4.3q9.64-8.83 23.22-8.83 4.9 0 8.77 1.61 3.87 1.6 6.54 4.46 2.67 2.87 4.06 6.84 1.39 3.98 1.39 8.72v35.32h-6.1q-1.91 0-2.95-.57-1.03-.57-1.63-2.32l-1.2-4.03q-2.13 1.91-4.14 3.35-2.02 1.44-4.2 2.43-2.18.98-4.66 1.49-2.48.52-5.48.52-3.54 0-6.54-.95-2.99-.96-5.17-2.86-2.18-1.91-3.38-4.74-1.2-2.84-1.2-6.6 0-2.12.71-4.22.7-2.1 2.31-4.01t4.17-3.6q2.56-1.68 6.3-2.94 3.73-1.25 8.69-2.04t11.34-.96v-3.27q0-5.61-2.4-8.31t-6.92-2.7q-3.27 0-5.43.77-2.15.76-3.78 1.71-1.64.96-2.97 1.72-1.34.76-2.98.76-1.41 0-2.39-.73-.98-.74-1.58-1.72m66.1-8.72.82 6.32q2.62-5.01 6.22-7.87 3.59-2.86 8.5-2.86 3.87 0 6.21 1.69l-.87 10.08q-.27.98-.79 1.39t-1.39.41q-.82 0-2.43-.27-1.6-.28-3.13-.28-2.24 0-3.98.66-1.74.65-3.13 1.88-1.39 1.22-2.46 2.97-1.06 1.74-1.98 3.98v34.44h-13.47v-55.92h7.91q2.07 0 2.88.74.82.73 1.09 2.64m42.24 52.54h-13.46v-55.92h8.23q2.62 0 3.43 2.46l.88 4.14q1.47-1.64 3.08-3 1.6-1.36 3.43-2.34 1.82-.98 3.92-1.56 2.1-.57 4.61-.57 5.28 0 8.69 2.86t5.1 7.6q1.3-2.77 3.27-4.76 1.96-1.99 4.3-3.25 2.35-1.25 4.99-1.85t5.31-.6q4.63 0 8.23 1.42t6.05 4.14 3.73 6.65q1.29 3.92 1.29 8.99v35.59h-13.47v-35.59q0-5.34-2.34-8.04t-6.87-2.7q-2.07 0-3.84.71t-3.11 2.05q-1.33 1.33-2.09 3.35-.77 2.02-.77 4.63v35.59h-13.51v-35.59q0-5.61-2.26-8.17-2.27-2.57-6.63-2.57-2.94 0-5.47 1.45-2.54 1.44-4.72 3.95zm102.57-56.79q6.21 0 11.31 2.02 5.1 2.01 8.72 5.72t5.59 9.05q1.96 5.34 1.96 11.93 0 6.65-1.96 11.99-1.97 5.34-5.59 9.1t-8.72 5.78-11.31 2.02q-6.27 0-11.39-2.02t-8.75-5.78q-3.62-3.76-5.61-9.1t-1.99-11.99q0-6.59 1.99-11.93t5.61-9.05q3.63-3.71 8.75-5.72 5.12-2.02 11.39-2.02m0 47.25q6.98 0 10.33-4.68 3.35-4.69 3.35-13.74t-3.35-13.79-10.33-4.74q-7.08 0-10.49 4.77t-3.41 13.76 3.41 13.71q3.41 4.71 10.49 4.71m49.54-43.92.93 4.41q1.69-1.69 3.57-3.13 1.88-1.45 3.98-2.46 2.09-1 4.49-1.58 2.4-.57 5.23-.57 4.58 0 8.13 1.55 3.54 1.56 5.91 4.36 2.37 2.81 3.6 6.71 1.22 3.89 1.22 8.58v35.59h-13.46v-35.59q0-5.12-2.34-7.93-2.35-2.81-7.14-2.81-3.49 0-6.54 1.59-3.05 1.58-5.78 4.3v40.44h-13.46v-55.92h8.23q2.61 0 3.43 2.46m89.82-2.46h10.79l-30.47 71.29q-.6 1.42-1.55 2.15-.95.74-2.92.74h-10.02l10.46-22.46-22.62-51.72h11.83q1.58 0 2.48.77.9.76 1.33 1.74l11.89 28.99q.59 1.48 1 2.95t.79 2.99q.49-1.52.98-3.02.5-1.5 1.09-2.97l11.23-28.94q.44-1.09 1.45-1.8 1-.71 2.26-.71m65.23-15.47-3.65 6.92q-.65 1.14-1.39 1.66-.73.52-1.82.52-1.15 0-2.48-.85-1.34-.84-3.19-1.88-1.85-1.03-4.33-1.88-2.48-.84-5.86-.84-3.05 0-5.34.73-2.29.74-3.85 2.05-1.55 1.3-2.31 3.13t-.76 4.01q0 2.77 1.55 4.63 1.55 1.85 4.11 3.16t5.83 2.34q3.27 1.04 6.71 2.21 3.43 1.17 6.7 2.72 3.27 1.56 5.83 3.93t4.12 5.8q1.55 3.44 1.55 8.34 0 5.34-1.82 10-1.83 4.66-5.35 8.12-3.51 3.46-8.58 5.45t-11.61 1.99q-3.76 0-7.41-.73-3.65-.74-7-2.1t-6.3-3.27q-2.94-1.91-5.23-4.25l4.31-7.03q.54-.77 1.41-1.28.87-.52 1.86-.52 1.36 0 2.94 1.12 1.58 1.11 3.76 2.48 2.18 1.36 5.09 2.47 2.92 1.12 7.01 1.12 6.27 0 9.7-2.97t3.43-8.53q0-3.1-1.55-5.07-1.55-1.96-4.12-3.29-2.56-1.34-5.83-2.26-3.27-.93-6.65-2.02-3.37-1.09-6.64-2.62-3.27-1.52-5.84-3.98-2.56-2.45-4.11-6.13t-1.55-9.07q0-4.31 1.71-8.39 1.72-4.09 4.99-7.25t8.07-5.07q4.79-1.91 11-1.91 6.98 0 12.87 2.18 5.88 2.18 10.02 6.11m12.05-9.6h13.46v46.38h2.51q1.36 0 2.15-.35.79-.36 1.61-1.45l13.9-17.16q.87-1.15 1.93-1.75t2.75-.6h12.32l-17.39 20.77q-1.85 2.45-4.03 3.76 1.15.82 2.04 1.91.9 1.09 1.72 2.34l18.64 27.14h-12.15q-1.58 0-2.73-.52-1.14-.52-1.91-1.88l-14.27-21.2q-.77-1.25-1.59-1.63-.81-.38-2.45-.38h-3.05v25.61h-13.46zm68.89 46.6h25.39q0-2.62-.73-4.93-.74-2.32-2.21-4.06-1.47-1.75-3.73-2.75-2.26-1.01-5.26-1.01-5.83 0-9.19 3.32-3.35 3.33-4.27 9.43m34.33 8.12h-34.61q.33 4.31 1.53 7.44t3.16 5.18q1.96 2.04 4.66 3.05t5.97 1.01 5.64-.77q2.37-.76 4.14-1.68 1.77-.93 3.11-1.69 1.33-.77 2.59-.77 1.69 0 2.5 1.26l3.87 4.9q-2.23 2.62-5.01 4.39t-5.81 2.83q-3.02 1.07-6.15 1.5-3.14.44-6.08.44-5.83 0-10.85-1.94-5.01-1.93-8.72-5.72-3.7-3.79-5.83-9.37-2.12-5.59-2.12-12.95 0-5.72 1.85-10.76t5.31-8.78q3.46-3.73 8.45-5.91t11.26-2.18q5.28 0 9.75 1.69t7.69 4.93q3.21 3.25 5.04 7.96 1.82 4.71 1.82 10.76 0 3.06-.65 4.12-.66 1.06-2.51 1.06m31.88 27.14q-7.3 0-11.2-4.11-3.89-4.12-3.89-11.37v-31.22h-5.72q-1.09 0-1.86-.71-.76-.71-.76-2.13v-5.34l8.99-1.47 2.84-15.26q.27-1.09 1.03-1.69t1.96-.6h6.98v17.6h14.93v9.6h-14.93v30.3q0 2.61 1.28 4.08 1.28 1.48 3.52 1.48 1.25 0 2.09-.3.85-.3 1.47-.63.63-.33 1.12-.63t.98-.3q.6 0 .98.3.39.3.82.9l4.03 6.54q-2.94 2.45-6.75 3.71-3.82 1.25-7.91 1.25m65.51-49.87-3.54 4.91q-.6.76-1.17 1.2-.57.43-1.66.43-1.04 0-2.02-.62-.98-.63-2.34-1.42-1.37-.79-3.25-1.42-1.88-.62-4.66-.62-3.54 0-6.21 1.28t-4.44 3.68q-1.77 2.39-2.64 5.8-.88 3.41-.88 7.71 0 4.47.96 7.96.95 3.49 2.75 5.86t4.36 3.6q2.56 1.22 5.78 1.22 3.21 0 5.2-.79t3.35-1.74q1.37-.96 2.37-1.75 1.01-.79 2.27-.79 1.63 0 2.45 1.26l3.87 4.9q-2.24 2.62-4.85 4.39-2.62 1.77-5.43 2.83-2.8 1.07-5.77 1.5-2.97.44-5.92.44-5.17 0-9.75-1.94-4.58-1.93-8.01-5.64-3.44-3.7-5.43-9.07-1.98-5.37-1.98-12.24 0-6.16 1.77-11.42 1.77-5.25 5.2-9.1 3.44-3.84 8.5-6.02 5.07-2.18 11.67-2.18 6.26 0 10.98 2.02 4.71 2.01 8.47 5.77m22.4-31.99v31.07q3.27-3.05 7.2-4.96 3.92-1.91 9.21-1.91 4.58 0 8.12 1.55 3.54 1.56 5.91 4.36 2.37 2.81 3.6 6.71 1.22 3.89 1.22 8.58v35.59h-13.46v-35.59q0-5.12-2.34-7.93t-7.14-2.81q-3.49 0-6.54 1.59-3.05 1.58-5.78 4.3v40.44h-13.46v-80.99zm130.75 62.41q1.2 0 2.12.92l5.78 6.27q-4.8 5.94-11.8 9.1t-16.81 3.16q-8.78 0-15.78-3-7-2.99-11.96-8.33t-7.61-12.76q-2.64-7.41-2.64-16.18 0-8.89 2.84-16.27 2.83-7.39 7.98-12.73t12.29-8.31 15.8-2.97q8.62 0 15.29 2.84 6.68 2.83 11.37 7.41l-4.91 6.81q-.44.65-1.12 1.14t-1.88.49q-.81 0-1.69-.46-.87-.46-1.9-1.14-1.04-.68-2.4-1.5t-3.16-1.5-4.17-1.15q-2.37-.46-5.48-.46-5.29 0-9.67 1.88-4.39 1.88-7.55 5.45t-4.91 8.72q-1.74 5.15-1.74 11.75 0 6.65 1.88 11.82 1.88 5.18 5.1 8.72 3.21 3.55 7.57 5.43t9.37 1.88q3 0 5.43-.33 2.42-.33 4.47-1.04 2.04-.71 3.87-1.82 1.82-1.12 3.62-2.75.55-.49 1.14-.79.6-.3 1.26-.3m45.4 4.14v-9.43q-5.83.27-9.81 1.01-3.98.73-6.38 1.88-2.4 1.14-3.43 2.67-1.04 1.52-1.04 3.32 0 3.54 2.1 5.07t5.48 1.53q4.14 0 7.16-1.5 3.03-1.5 5.92-4.55m-28.45-29.38-2.4-4.3q9.65-8.83 23.22-8.83 4.9 0 8.77 1.61 3.87 1.6 6.54 4.46 2.67 2.87 4.06 6.84 1.39 3.98 1.39 8.72v35.32h-6.1q-1.91 0-2.95-.57-1.03-.57-1.63-2.32l-1.2-4.03q-2.13 1.91-4.14 3.35-2.02 1.44-4.2 2.43-2.18.98-4.66 1.49-2.48.52-5.48.52-3.54 0-6.54-.95-2.99-.96-5.17-2.86-2.18-1.91-3.38-4.74-1.2-2.84-1.2-6.6 0-2.12.71-4.22t2.31-4.01q1.61-1.91 4.17-3.6 2.56-1.68 6.3-2.94 3.73-1.25 8.69-2.04t11.34-.96v-3.27q0-5.61-2.4-8.31t-6.92-2.7q-3.27 0-5.43.77-2.15.76-3.78 1.71-1.64.96-2.97 1.72-1.34.76-2.97.76-1.42 0-2.4-.73-.98-.74-1.58-1.72m65.89-9.64.92 4.41q1.69-1.69 3.57-3.13 1.88-1.45 3.98-2.46 2.1-1 4.5-1.58 2.4-.57 5.23-.57 4.58 0 8.12 1.55 3.54 1.56 5.91 4.36 2.38 2.81 3.6 6.71 1.23 3.89 1.23 8.58v35.59h-13.46v-35.59q0-5.12-2.35-7.93-2.34-2.81-7.14-2.81-3.48 0-6.54 1.59-3.05 1.58-5.77 4.3v40.44h-13.46v-55.92h8.22q2.62 0 3.44 2.46m89.6-2.46h10.62l-22.18 55.92h-12.21l-22.18-55.92h11.12q1.53 0 2.53.71 1.01.71 1.34 1.8l10.79 29.87q.87 2.61 1.53 5.12.65 2.51 1.14 5.01.55-2.5 1.2-5.01t1.58-5.12l11.01-29.87q.38-1.09 1.36-1.8t2.35-.71m47.3 41.48v-9.43q-5.83.27-9.81 1.01-3.98.73-6.37 1.88-2.4 1.14-3.44 2.67-1.03 1.52-1.03 3.32 0 3.54 2.09 5.07 2.1 1.53 5.48 1.53 4.14 0 7.17-1.5 3.02-1.5 5.91-4.55m-28.45-29.38-2.39-4.3q9.64-8.83 23.21-8.83 4.91 0 8.78 1.61 3.87 1.6 6.54 4.46 2.67 2.87 4.06 6.84 1.39 3.98 1.39 8.72v35.32h-6.11q-1.9 0-2.94-.57t-1.64-2.32l-1.19-4.03q-2.13 1.91-4.15 3.35-2.01 1.44-4.19 2.43-2.18.98-4.66 1.49-2.48.52-5.48.52-3.54 0-6.54-.95-3-.96-5.18-2.86-2.18-1.91-3.38-4.74-1.2-2.84-1.2-6.6 0-2.12.71-4.22t2.32-4.01 4.17-3.6q2.56-1.68 6.29-2.94 3.74-1.25 8.7-2.04t11.33-.96v-3.27q0-5.61-2.4-8.31-2.39-2.7-6.92-2.7-3.27 0-5.42.77-2.15.76-3.79 1.71-1.63.96-2.97 1.72-1.33.76-2.97.76-1.42 0-2.4-.73-.98-.74-1.58-1.72m91.4-6.05-3.05 4.85q-.55.87-1.15 1.23-.6.35-1.52.35-.98 0-2.1-.54-1.12-.55-2.59-1.23t-3.35-1.22q-1.88-.55-4.44-.55-3.98 0-6.24 1.69-2.27 1.69-2.27 4.41 0 1.8 1.18 3.03 1.17 1.23 3.1 2.15 1.94.93 4.39 1.66 2.45.74 4.99 1.61 2.53.87 4.98 1.99 2.46 1.12 4.39 2.84 1.94 1.71 3.11 4.11t1.17 5.78q0 4.03-1.44 7.44-1.45 3.4-4.28 5.88-2.84 2.48-7.01 3.87t-9.62 1.39q-2.88 0-5.64-.52-2.75-.51-5.28-1.44-2.54-.93-4.69-2.18t-3.79-2.73l3.11-5.12q.6-.92 1.42-1.42.81-.49 2.07-.49 1.25 0 2.37.71 1.11.71 2.59 1.53 1.47.82 3.46 1.52 1.99.71 5.04.71 2.4 0 4.11-.57 1.72-.57 2.84-1.5 1.11-.92 1.63-2.15t.52-2.53q0-1.97-1.17-3.22t-3.11-2.18q-1.93-.93-4.41-1.66-2.48-.74-5.07-1.61t-5.07-2.04q-2.48-1.18-4.41-2.97-1.94-1.8-3.11-4.42-1.17-2.61-1.17-6.32 0-3.43 1.36-6.54t4.01-5.42q2.64-2.32 6.59-3.71t9.13-1.39q5.78 0 10.52 1.91t7.9 5.01"/></svg>